<?xml version="1.0" encoding="UTF-8" standalone="no"?>
<!-- Created with Inkscape (http://www.inkscape.org/) -->

<svg
   width="185mm"
   height="185mm"
   viewBox="0 0 185 185"
   version="1.1"
   id="svg5"
   inkscape:version="1.1 (c68e22c387, 2021-05-23)"
   sodipodi:docname="logo.svg"
   xmlns:inkscape="http://www.inkscape.org/namespaces/inkscape"
   xmlns:sodipodi="http://sodipodi.sourceforge.net/DTD/sodipodi-0.dtd"
   xmlns:xlink="http://www.w3.org/1999/xlink"
   xmlns="http://www.w3.org/2000/svg"
   xmlns:svg="http://www.w3.org/2000/svg">
  <sodipodi:namedview
     id="namedview7"
     pagecolor="#ffffff"
     bordercolor="#666666"
     borderopacity="1.0"
     inkscape:pageshadow="2"
     inkscape:pageopacity="0.0"
     inkscape:pagecheckerboard="0"
     inkscape:document-units="mm"
     showgrid="false"
     inkscape:snap-text-baseline="false"
     inkscape:zoom="0.74118968"
     inkscape:cx="213.8454"
     inkscape:cy="284.00287"
     inkscape:window-width="1920"
     inkscape:window-height="1017"
     inkscape:window-x="-8"
     inkscape:window-y="-8"
     inkscape:window-maximized="1"
     inkscape:current-layer="layer1" />
  <defs
     id="defs2">
    <linearGradient
       inkscape:collect="always"
       id="linearGradient6579">
      <stop
         style="stop-color:#e60d52;stop-opacity:1"
         offset="0"
         id="stop6575" />
      <stop
         style="stop-color:#ff6200;stop-opacity:1"
         offset="1"
         id="stop6577" />
    </linearGradient>
    <linearGradient
       inkscape:collect="always"
       xlink:href="#linearGradient6579"
       id="linearGradient1136"
       x1="-92.339973"
       y1="200.65936"
       x2="66.601128"
       y2="42.878109"
       gradientUnits="userSpaceOnUse" />
  </defs>
  <g
     inkscape:label="Layer 1"
     inkscape:groupmode="layer"
     id="layer1"
     style="display:inline"
     transform="translate(106.97579,-31.76753)">
    <rect
       style="display:inline;fill:url(#linearGradient1136);fill-opacity:1;fill-rule:evenodd;stroke-width:0.323396"
       id="rect1048"
       width="185"
       height="185"
       x="-106.97579"
       y="31.76753"
       ry="0" />
    <g
       id="g942"
       transform="matrix(0.75318317,0,0,0.75318317,-2.5250274,30.943065)">
      <path
         style="color:#000000;font-size:102.306px;font-family:'Tw Cen MT Condensed Extra Bold';-inkscape-font-specification:'Tw Cen MT Condensed Extra Bold, Normal';fill:#ffffff;stroke-width:0.24481;-inkscape-stroke:none"
         d="m -57.478109,79.086938 h 14.004948 v 22.879372 h 12.433434 V 79.086938 h 14.004946 v 61.704972 h -14.004946 v -25.65263 h -12.433434 v 25.65263 h -14.004948 z"
         id="path830" />
      <path
         style="color:#000000;font-size:102.306px;font-family:'Tw Cen MT Condensed Extra Bold';-inkscape-font-specification:'Tw Cen MT Condensed Extra Bold, Normal';fill:#ffffff;stroke-width:0.24481;-inkscape-stroke:none"
         d="M -3.8155843,79.086938 H 9.2649458 q 13.5889552,0 20.6607642,7.76512 7.071807,7.7189 7.071807,22.602062 0,11.2779 -3.51279,18.21105 -3.466575,6.93314 -9.752626,10.02994 -6.239827,3.0968 -13.8200607,3.0968 H -3.8155843 Z m 14.0049463,13.12675 v 35.405252 q 6.378496,-0.55464 9.013086,-4.48343 2.634592,-3.97501 2.634592,-13.03431 0,-5.36162 -0.924418,-9.05931 -0.924417,-3.743896 -2.773252,-5.731397 -1.802617,-2.033722 -3.559017,-2.495932 -1.710174,-0.462209 -4.390991,-0.600873 z"
         id="path832" />
      <g
         aria-label="REZKA"
         id="text1614-5"
         style="font-weight:bold;font-size:38.8056px;font-family:'Tw Cen MT';-inkscape-font-specification:'Tw Cen MT, Bold';fill:#ffffff;stroke-width:0.264583"
         inkscape:transform-center-x="89.840006"
         inkscape:transform-center-y="-4.9544116"
         transform="matrix(0.92526847,0,0,0.92526847,-207.76563,9.0045496)">
        <path
           style="color:#000000;-inkscape-font-specification:'Tw Cen MT, Bold';-inkscape-stroke:none"
           d="m 157.77294,150.90326 c 4.08036,0.19905 8.30923,-0.5517 12.23718,0.76977 5.79501,2.34645 5.04883,11.7554 -0.64098,13.74443 2.31798,3.45486 4.63595,6.90972 6.95393,10.36458 -2.04639,0 -4.09277,0 -6.13916,0 -2.14745,-3.20853 -4.29489,-6.41707 -6.44234,-9.6256 -1.30681,0.11319 -0.28023,2.55977 -0.60634,3.65366 0,1.99065 0,3.98129 0,5.97194 -1.78743,0 -3.57486,0 -5.36229,0 0,-8.29293 0,-16.58585 0,-24.87878 z m 5.40019,4.43384 c 0,2.16008 0,4.32015 0,6.48023 3.32652,0.93118 7.42332,-2.73162 4.24436,-5.64651 -1.21583,-0.9428 -2.79896,-0.83242 -4.24436,-0.83372 z"
           id="path1563" />
        <path
           style="color:#000000;-inkscape-font-specification:'Tw Cen MT, Bold';-inkscape-stroke:none"
           d="m 180.4727,150.90326 c 4.66753,0 9.33507,0 14.0026,0 0,1.64216 0,3.28433 0,4.92649 -2.8801,0 -5.76021,0 -8.64031,0 0,1.67374 0,3.34749 0,5.02123 2.8801,0 5.76021,0 8.64031,0 0,1.6169 0,3.2338 0,4.8507 -2.8801,0 -5.76021,0 -8.64031,0 0,1.71796 0,3.43591 0,5.15387 2.8801,0 5.76021,0 8.64031,0 0,1.64216 0,3.28433 0,4.92649 -4.66753,0 -9.33507,0 -14.0026,0 0,-8.29293 0,-16.58585 0,-24.87878 z"
           id="path1565" />
        <path
           style="color:#000000;-inkscape-font-specification:'Tw Cen MT, Bold';-inkscape-stroke:none"
           d="m 199.34495,150.90326 c 6.01285,0 12.02569,0 18.03854,0 -3.73908,6.57497 -7.47816,13.14994 -11.21724,19.72491 3.60644,0 7.21289,0 10.81933,0 0,1.71796 0,3.43591 0,5.15387 -6.37286,0 -12.74572,0 -19.11858,0 3.76435,-6.59392 7.52869,-13.18784 11.29304,-19.78176 -3.2717,0 -6.54339,0 -9.81509,0 0,-1.69901 0,-3.39801 0,-5.09702 z"
           id="path1567" />
        <path
           style="color:#000000;-inkscape-font-specification:'Tw Cen MT, Bold';-inkscape-stroke:none"
           d="m 221.76049,150.90326 c 1.78743,0 3.57486,0 5.36229,0 0.0513,3.47939 -0.10204,7.16335 0.0758,10.51616 2.75378,-3.50539 5.50757,-7.01077 8.26135,-10.51616 2.18534,0 4.37068,0 6.55602,0 -3.15169,3.96014 -6.30339,7.92028 -9.45508,11.88042 3.28433,4.33279 6.56866,8.66557 9.85299,12.99836 -2.14745,0 -4.29489,0 -6.44234,0 -2.9597,-3.85772 -5.83874,-7.87729 -8.84874,-11.6341 0,3.87803 0,7.75607 0,11.6341 -1.78743,0 -3.57486,0 -5.36229,0 0,-8.29293 0,-16.58585 0,-24.87878 z"
           id="path1569" />
        <path
           style="color:#000000;-inkscape-font-specification:'Tw Cen MT, Bold';-inkscape-stroke:none"
           d="m 254.90062,150.90326 c 1.38321,0 2.76641,0 4.14962,0 3.38539,8.29293 6.77077,16.58585 10.15616,24.87878 -1.79375,0 -3.5875,0 -5.38125,0 -0.67581,-1.62953 -1.35163,-3.25906 -2.02744,-4.88859 -3.17696,0 -6.35391,0 -9.53087,0 -0.65055,1.62953 -1.3011,3.25906 -1.95165,4.88859 -1.78743,0 -3.57486,0 -5.36229,0 3.31591,-8.29293 6.63181,-16.58585 9.94772,-24.87878 z m 2.08429,8.14766 c -0.96635,2.4443 -1.9327,4.88859 -2.89905,7.33289 1.96428,0 3.92856,0 5.89284,0 -0.99793,-2.4443 -1.99586,-4.88859 -2.99379,-7.33289 z"
           id="path1571" />
      </g>
    </g>
  </g>
</svg>
