<?xml version="1.0" encoding="UTF-8" standalone="no"?>
<!-- Created with Inkscape (http://www.inkscape.org/) -->

<svg
   width="432mm"
   height="243mm"
   viewBox="0 0 432 243"
   version="1.1"
   id="svg5"
   inkscape:version="1.1 (c68e22c387, 2021-05-23)"
   sodipodi:docname="logo_tv.svg"
   inkscape:export-filename="C:\Users\VLAD\Desktop\logo_tv.png"
   inkscape:export-xdpi="27.799999"
   inkscape:export-ydpi="27.799999"
   xmlns:inkscape="http://www.inkscape.org/namespaces/inkscape"
   xmlns:sodipodi="http://sodipodi.sourceforge.net/DTD/sodipodi-0.dtd"
   xmlns:xlink="http://www.w3.org/1999/xlink"
   xmlns="http://www.w3.org/2000/svg"
   xmlns:svg="http://www.w3.org/2000/svg">
  <sodipodi:namedview
     id="namedview7"
     pagecolor="#ffffff"
     bordercolor="#666666"
     borderopacity="1.0"
     inkscape:pageshadow="2"
     inkscape:pageopacity="0.0"
     inkscape:pagecheckerboard="0"
     inkscape:document-units="mm"
     showgrid="false"
     inkscape:snap-text-baseline="false"
     inkscape:zoom="0.26205013"
     inkscape:cx="150.73452"
     inkscape:cy="-127.83814"
     inkscape:window-width="1920"
     inkscape:window-height="1017"
     inkscape:window-x="-8"
     inkscape:window-y="-8"
     inkscape:window-maximized="1"
     inkscape:current-layer="layer1" />
  <defs
     id="defs2">
    <linearGradient
       inkscape:collect="always"
       id="linearGradient6579">
      <stop
         style="stop-color:#e60d52;stop-opacity:1"
         offset="0"
         id="stop6575" />
      <stop
         style="stop-color:#ff6200;stop-opacity:1"
         offset="1"
         id="stop6577" />
    </linearGradient>
    <linearGradient
       inkscape:collect="always"
       xlink:href="#linearGradient6579"
       id="linearGradient12742"
       x1="351.26938"
       y1="307.97852"
       x2="783.26941"
       y2="64.978523"
       gradientUnits="userSpaceOnUse" />
  </defs>
  <g
     inkscape:label="Layer 1"
     inkscape:groupmode="layer"
     id="layer1"
     style="display:inline"
     transform="translate(-351.26938,-64.978523)">
    <rect
       style="opacity:1;fill:url(#linearGradient12742);fill-opacity:1;fill-rule:evenodd;stroke-width:0.601235"
       id="rect959"
       width="432"
       height="243"
       x="351.26938"
       y="64.978523"
       inkscape:export-filename="C:\Users\VLAD\Desktop\rect959.png"
       inkscape:export-xdpi="27.799999"
       inkscape:export-ydpi="27.799999" />
    <g
       id="g13227"
       clip-path="none"
       transform="translate(-6.879167,10.218335)">
      <g
         inkscape:label="Clip"
         id="g13225">
        <path
           style="color:#000000;font-size:102.306px;font-family:'Tw Cen MT Condensed Extra Bold';-inkscape-font-specification:'Tw Cen MT Condensed Extra Bold, Normal';display:inline;fill:#ffffff;stroke-width:0.264583;-inkscape-stroke:none"
           d="m 420.4902,143.05989 h 15.13609 v 24.72728 h 13.43765 v -24.72728 h 15.13609 v 66.68873 h -15.13609 v -27.72453 h -13.43765 v 27.72453 H 420.4902 Z"
           id="path830-4"
           inkscape:export-filename="C:\Users\VLAD\Desktop\rect959.png"
           inkscape:export-xdpi="27.799999"
           inkscape:export-ydpi="27.799999" />
        <path
           style="color:#000000;font-size:102.306px;font-family:'Tw Cen MT Condensed Extra Bold';-inkscape-font-specification:'Tw Cen MT Condensed Extra Bold, Normal';display:inline;fill:#ffffff;stroke-width:0.264583;-inkscape-stroke:none"
           d="m 478.48691,143.05989 h 14.13701 q 14.6865,0 22.32948,8.39229 7.64298,8.34234 7.64298,24.42756 0,12.1888 -3.79651,19.68191 -3.74656,7.49312 -10.54032,10.84004 -6.7438,3.34693 -14.93627,3.34693 h -14.83637 z m 15.13609,14.18697 v 38.26484 q 6.89367,-0.59945 9.74105,-4.84555 2.84738,-4.29605 2.84738,-14.08706 0,-5.79467 -0.99908,-9.791 -0.99908,-4.04628 -2.99724,-6.19431 -1.94821,-2.19798 -3.84647,-2.69752 -1.8483,-0.49954 -4.74564,-0.6494 z"
           id="path832-1"
           inkscape:export-filename="C:\Users\VLAD\Desktop\rect959.png"
           inkscape:export-xdpi="27.799999"
           inkscape:export-ydpi="27.799999" />
        <g
           aria-label="REZKA"
           id="text1614-5-1"
           style="font-weight:bold;font-size:38.8056px;font-family:'Tw Cen MT';-inkscape-font-specification:'Tw Cen MT, Bold';display:inline;fill:#ffffff;stroke-width:0.264583"
           inkscape:transform-center-x="172.75557"
           inkscape:transform-center-y="-9.5269661"
           transform="matrix(1.7792215,0,0,1.7792215,252.80075,-104.08924)"
           inkscape:export-filename="C:\Users\VLAD\Desktop\rect959.png"
           inkscape:export-xdpi="27.799999"
           inkscape:export-ydpi="27.799999">
          <path
             style="color:#000000;-inkscape-font-specification:'Tw Cen MT, Bold';-inkscape-stroke:none"
             d="m 157.77294,150.90326 c 4.08036,0.19905 8.30923,-0.5517 12.23718,0.76977 5.79501,2.34645 5.04883,11.7554 -0.64098,13.74443 2.31798,3.45486 4.63595,6.90972 6.95393,10.36458 -2.04639,0 -4.09277,0 -6.13916,0 -2.14745,-3.20853 -4.29489,-6.41707 -6.44234,-9.6256 -1.30681,0.11319 -0.28023,2.55977 -0.60634,3.65366 0,1.99065 0,3.98129 0,5.97194 -1.78743,0 -3.57486,0 -5.36229,0 0,-8.29293 0,-16.58585 0,-24.87878 z m 5.40019,4.43384 c 0,2.16008 0,4.32015 0,6.48023 3.32652,0.93118 7.42332,-2.73162 4.24436,-5.64651 -1.21583,-0.9428 -2.79896,-0.83242 -4.24436,-0.83372 z"
             id="path1563-3" />
          <path
             style="color:#000000;-inkscape-font-specification:'Tw Cen MT, Bold';-inkscape-stroke:none"
             d="m 180.4727,150.90326 c 4.66753,0 9.33507,0 14.0026,0 0,1.64216 0,3.28433 0,4.92649 -2.8801,0 -5.76021,0 -8.64031,0 0,1.67374 0,3.34749 0,5.02123 2.8801,0 5.76021,0 8.64031,0 0,1.6169 0,3.2338 0,4.8507 -2.8801,0 -5.76021,0 -8.64031,0 0,1.71796 0,3.43591 0,5.15387 2.8801,0 5.76021,0 8.64031,0 0,1.64216 0,3.28433 0,4.92649 -4.66753,0 -9.33507,0 -14.0026,0 0,-8.29293 0,-16.58585 0,-24.87878 z"
             id="path1565-1" />
          <path
             style="color:#000000;-inkscape-font-specification:'Tw Cen MT, Bold';-inkscape-stroke:none"
             d="m 199.34495,150.90326 c 6.01285,0 12.02569,0 18.03854,0 -3.73908,6.57497 -7.47816,13.14994 -11.21724,19.72491 3.60644,0 7.21289,0 10.81933,0 0,1.71796 0,3.43591 0,5.15387 -6.37286,0 -12.74572,0 -19.11858,0 3.76435,-6.59392 7.52869,-13.18784 11.29304,-19.78176 -3.2717,0 -6.54339,0 -9.81509,0 0,-1.69901 0,-3.39801 0,-5.09702 z"
             id="path1567-5" />
          <path
             style="color:#000000;-inkscape-font-specification:'Tw Cen MT, Bold';-inkscape-stroke:none"
             d="m 221.76049,150.90326 c 1.78743,0 3.57486,0 5.36229,0 0.0513,3.47939 -0.10204,7.16335 0.0758,10.51616 2.75378,-3.50539 5.50757,-7.01077 8.26135,-10.51616 2.18534,0 4.37068,0 6.55602,0 -3.15169,3.96014 -6.30339,7.92028 -9.45508,11.88042 3.28433,4.33279 6.56866,8.66557 9.85299,12.99836 -2.14745,0 -4.29489,0 -6.44234,0 -2.9597,-3.85772 -5.83874,-7.87729 -8.84874,-11.6341 0,3.87803 0,7.75607 0,11.6341 -1.78743,0 -3.57486,0 -5.36229,0 0,-8.29293 0,-16.58585 0,-24.87878 z"
             id="path1569-4" />
          <path
             style="color:#000000;-inkscape-font-specification:'Tw Cen MT, Bold';-inkscape-stroke:none"
             d="m 254.90062,150.90326 c 1.38321,0 2.76641,0 4.14962,0 3.38539,8.29293 6.77077,16.58585 10.15616,24.87878 -1.79375,0 -3.5875,0 -5.38125,0 -0.67581,-1.62953 -1.35163,-3.25906 -2.02744,-4.88859 -3.17696,0 -6.35391,0 -9.53087,0 -0.65055,1.62953 -1.3011,3.25906 -1.95165,4.88859 -1.78743,0 -3.57486,0 -5.36229,0 3.31591,-8.29293 6.63181,-16.58585 9.94772,-24.87878 z m 2.08429,8.14766 c -0.96635,2.4443 -1.9327,4.88859 -2.89905,7.33289 1.96428,0 3.92856,0 5.89284,0 -0.99793,-2.4443 -1.99586,-4.88859 -2.99379,-7.33289 z"
             id="path1571-6" />
        </g>
      </g>
    </g>
    <g
       inkscape:label="Clip"
       id="use13231"
       transform="translate(-6.879167,10.218335)">
      <path
         style="color:#000000;font-size:102.306px;font-family:'Tw Cen MT Condensed Extra Bold';-inkscape-font-specification:'Tw Cen MT Condensed Extra Bold, Normal';display:inline;fill:#ffffff;stroke-width:0.264583;-inkscape-stroke:none"
         d="m 420.4902,143.05989 h 15.13609 v 24.72728 h 13.43765 v -24.72728 h 15.13609 v 66.68873 h -15.13609 v -27.72453 h -13.43765 v 27.72453 H 420.4902 Z"
         id="path846"
         inkscape:export-filename="C:\Users\VLAD\Desktop\rect959.png"
         inkscape:export-xdpi="27.799999"
         inkscape:export-ydpi="27.799999" />
      <path
         style="color:#000000;font-size:102.306px;font-family:'Tw Cen MT Condensed Extra Bold';-inkscape-font-specification:'Tw Cen MT Condensed Extra Bold, Normal';display:inline;fill:#ffffff;stroke-width:0.264583;-inkscape-stroke:none"
         d="m 478.48691,143.05989 h 14.13701 q 14.6865,0 22.32948,8.39229 7.64298,8.34234 7.64298,24.42756 0,12.1888 -3.79651,19.68191 -3.74656,7.49312 -10.54032,10.84004 -6.7438,3.34693 -14.93627,3.34693 h -14.83637 z m 15.13609,14.18697 v 38.26484 q 6.89367,-0.59945 9.74105,-4.84555 2.84738,-4.29605 2.84738,-14.08706 0,-5.79467 -0.99908,-9.791 -0.99908,-4.04628 -2.99724,-6.19431 -1.94821,-2.19798 -3.84647,-2.69752 -1.8483,-0.49954 -4.74564,-0.6494 z"
         id="path848"
         inkscape:export-filename="C:\Users\VLAD\Desktop\rect959.png"
         inkscape:export-xdpi="27.799999"
         inkscape:export-ydpi="27.799999" />
      <g
         aria-label="REZKA"
         id="g860"
         style="font-weight:bold;font-size:38.8056px;font-family:'Tw Cen MT';-inkscape-font-specification:'Tw Cen MT, Bold';display:inline;fill:#ffffff;stroke-width:0.264583"
         inkscape:transform-center-x="172.75557"
         inkscape:transform-center-y="-9.5269661"
         transform="matrix(1.7792215,0,0,1.7792215,252.80075,-104.08924)"
         inkscape:export-filename="C:\Users\VLAD\Desktop\rect959.png"
         inkscape:export-xdpi="27.799999"
         inkscape:export-ydpi="27.799999">
        <path
           style="color:#000000;-inkscape-font-specification:'Tw Cen MT, Bold';-inkscape-stroke:none"
           d="m 157.77294,150.90326 c 4.08036,0.19905 8.30923,-0.5517 12.23718,0.76977 5.79501,2.34645 5.04883,11.7554 -0.64098,13.74443 2.31798,3.45486 4.63595,6.90972 6.95393,10.36458 -2.04639,0 -4.09277,0 -6.13916,0 -2.14745,-3.20853 -4.29489,-6.41707 -6.44234,-9.6256 -1.30681,0.11319 -0.28023,2.55977 -0.60634,3.65366 0,1.99065 0,3.98129 0,5.97194 -1.78743,0 -3.57486,0 -5.36229,0 0,-8.29293 0,-16.58585 0,-24.87878 z m 5.40019,4.43384 c 0,2.16008 0,4.32015 0,6.48023 3.32652,0.93118 7.42332,-2.73162 4.24436,-5.64651 -1.21583,-0.9428 -2.79896,-0.83242 -4.24436,-0.83372 z"
           id="path850" />
        <path
           style="color:#000000;-inkscape-font-specification:'Tw Cen MT, Bold';-inkscape-stroke:none"
           d="m 180.4727,150.90326 c 4.66753,0 9.33507,0 14.0026,0 0,1.64216 0,3.28433 0,4.92649 -2.8801,0 -5.76021,0 -8.64031,0 0,1.67374 0,3.34749 0,5.02123 2.8801,0 5.76021,0 8.64031,0 0,1.6169 0,3.2338 0,4.8507 -2.8801,0 -5.76021,0 -8.64031,0 0,1.71796 0,3.43591 0,5.15387 2.8801,0 5.76021,0 8.64031,0 0,1.64216 0,3.28433 0,4.92649 -4.66753,0 -9.33507,0 -14.0026,0 0,-8.29293 0,-16.58585 0,-24.87878 z"
           id="path852" />
        <path
           style="color:#000000;-inkscape-font-specification:'Tw Cen MT, Bold';-inkscape-stroke:none"
           d="m 199.34495,150.90326 c 6.01285,0 12.02569,0 18.03854,0 -3.73908,6.57497 -7.47816,13.14994 -11.21724,19.72491 3.60644,0 7.21289,0 10.81933,0 0,1.71796 0,3.43591 0,5.15387 -6.37286,0 -12.74572,0 -19.11858,0 3.76435,-6.59392 7.52869,-13.18784 11.29304,-19.78176 -3.2717,0 -6.54339,0 -9.81509,0 0,-1.69901 0,-3.39801 0,-5.09702 z"
           id="path854" />
        <path
           style="color:#000000;-inkscape-font-specification:'Tw Cen MT, Bold';-inkscape-stroke:none"
           d="m 221.76049,150.90326 c 1.78743,0 3.57486,0 5.36229,0 0.0513,3.47939 -0.10204,7.16335 0.0758,10.51616 2.75378,-3.50539 5.50757,-7.01077 8.26135,-10.51616 2.18534,0 4.37068,0 6.55602,0 -3.15169,3.96014 -6.30339,7.92028 -9.45508,11.88042 3.28433,4.33279 6.56866,8.66557 9.85299,12.99836 -2.14745,0 -4.29489,0 -6.44234,0 -2.9597,-3.85772 -5.83874,-7.87729 -8.84874,-11.6341 0,3.87803 0,7.75607 0,11.6341 -1.78743,0 -3.57486,0 -5.36229,0 0,-8.29293 0,-16.58585 0,-24.87878 z"
           id="path856" />
        <path
           style="color:#000000;-inkscape-font-specification:'Tw Cen MT, Bold';-inkscape-stroke:none"
           d="m 254.90062,150.90326 c 1.38321,0 2.76641,0 4.14962,0 3.38539,8.29293 6.77077,16.58585 10.15616,24.87878 -1.79375,0 -3.5875,0 -5.38125,0 -0.67581,-1.62953 -1.35163,-3.25906 -2.02744,-4.88859 -3.17696,0 -6.35391,0 -9.53087,0 -0.65055,1.62953 -1.3011,3.25906 -1.95165,4.88859 -1.78743,0 -3.57486,0 -5.36229,0 3.31591,-8.29293 6.63181,-16.58585 9.94772,-24.87878 z m 2.08429,8.14766 c -0.96635,2.4443 -1.9327,4.88859 -2.89905,7.33289 1.96428,0 3.92856,0 5.89284,0 -0.99793,-2.4443 -1.99586,-4.88859 -2.99379,-7.33289 z"
           id="path858" />
      </g>
    </g>
  </g>
</svg>
